<svg width="1200" height="345" viewBox="0 0 1200 345" fill="none" xmlns="http://www.w3.org/2000/svg">
<path fill-rule="evenodd" clip-rule="evenodd" d="M0 0L45 18C83 55 140 66.25 176 70C212 73.75 211 169.75 247 151C284 132.25 291 187.5 327 206.25C364 225 400 262.5 436 273.75C473 285 509 270 545 258.75C582 247.5 618 240 655 243.75C691 247.5 727 262.5 764 251.25C800 240 836 202.5 873 183.75C909 165 945 165 982 168.75C1018 172.5 1055 180 1091 183.75C1127 187.5 1164 187.5 1182 187.5H1200V345H1182C1164 345 1127 345 1091 345C1055 345 1018 345 982 345C945 345 909 345 873 345C836 345 800 345 764 345C727 345 691 345 655 345C618 345 582 345 545 345C509 345 473 345 436 345C400 345 364 345 327 345C291 345 255 345 218 345C182 345 145 345 109 345C73 345 36 345 18 345H0V0Z" fill="#7001FD"/>
<path fill-rule="evenodd" clip-rule="evenodd" d="M0 328.271L50 319.906C100 311.541 200 294.812 300 294.812C400 294.812 500 311.541 600 300.388C700 289.235 800 250.2 900 241.835C1000 233.471 1100 255.777 1150 266.929L1200 278.082V345H1150C1100 345 1000 345 900 345C800 345 700 345 600 345C500 345 400 345 300 345C200 345 100 345 50 345H0V328.271Z" fill="#5205B5" fill-opacity="0.81"/>
</svg>
