<?xml version="1.0" standalone="no"?>
<svg xmlns:xlink="http://www.w3.org/1999/xlink" id="wave" style="transform:rotate(0deg); transition: 0.3s" viewBox="0 0 1440 420" version="1.1" xmlns="http://www.w3.org/2000/svg"><defs><linearGradient id="sw-gradient-0" x1="0" x2="0" y1="1" y2="0"><stop stop-color="rgba(112, 1, 253, 1)" offset="0%"/><stop stop-color="rgba(179.686, 143.446, 225.722, 1)" offset="100%"/></linearGradient></defs><path style="transform:translate(0, 0px); opacity:1" fill="url(#sw-gradient-0)" d="M0,294L60,301C120,308,240,322,360,315C480,308,600,280,720,259C840,238,960,224,1080,196C1200,168,1320,126,1440,133C1560,140,1680,196,1800,238C1920,280,2040,308,2160,322C2280,336,2400,336,2520,301C2640,266,2760,196,2880,140C3000,84,3120,42,3240,28C3360,14,3480,28,3600,56C3720,84,3840,126,3960,168C4080,210,4200,252,4320,231C4440,210,4560,126,4680,91C4800,56,4920,70,5040,91C5160,112,5280,140,5400,175C5520,210,5640,252,5760,252C5880,252,6000,210,6120,217C6240,224,6360,280,6480,280C6600,280,6720,224,6840,175C6960,126,7080,84,7200,63C7320,42,7440,42,7560,91C7680,140,7800,238,7920,252C8040,266,8160,196,8280,182C8400,168,8520,210,8580,231L8640,252L8640,420L8580,420C8520,420,8400,420,8280,420C8160,420,8040,420,7920,420C7800,420,7680,420,7560,420C7440,420,7320,420,7200,420C7080,420,6960,420,6840,420C6720,420,6600,420,6480,420C6360,420,6240,420,6120,420C6000,420,5880,420,5760,420C5640,420,5520,420,5400,420C5280,420,5160,420,5040,420C4920,420,4800,420,4680,420C4560,420,4440,420,4320,420C4200,420,4080,420,3960,420C3840,420,3720,420,3600,420C3480,420,3360,420,3240,420C3120,420,3000,420,2880,420C2760,420,2640,420,2520,420C2400,420,2280,420,2160,420C2040,420,1920,420,1800,420C1680,420,1560,420,1440,420C1320,420,1200,420,1080,420C960,420,840,420,720,420C600,420,480,420,360,420C240,420,120,420,60,420L0,420Z"/></svg>